,
Brought to you by  http://www.scenetime.com/signup.php
 
 Hottest scene tracker on the net !!!   
 
No fake torrents from scenebalance 
shame on those who comment fake before downloading my torrents

    seed back for speed


 



...................................NFO:.................................................MILF UNRATED 2010 DVDRIP - SCR0N
   General
      Complete name :MILF UNRATED 2010 DVDRIP - SCR0N.avi
      Format : AVI
      Format/Info : Audio Video Interleave
      File size : 1.07 GiB
      Duration : 1h 28mn
      Overall bit rate : 1 728 Kbps

   Video #0
      ID : 0
      Format : MPEG-4 Visual
      Format profile : AdvancedSimple@L5
      Format settings, BVOP : Yes
      Format settings, QPel : No
      Format settings, GMC : No warppoints
      Format settings, Matrix : Default (H.263)
      Codec ID : XVID
      Codec ID/Hint : XviD
      Duration : 1h 28mn
      Bit rate : 1 045 Kbps
      Width : 640 pixels
      Height : 352 pixels
      Display aspect ratio : 16:9
      Frame rate : 23.976 fps
      Resolution : 24 bits
      Colorimetry : 4:2:0
      Scan type : Progressive
      Bits/(Pixel*Frame) : 0.193
      Stream size : 660 MiB (60%)
      
   Audio #1
      ID : 1
      Format : AC-3
      Format/Info : Audio Coding 3
      Codec ID : 2000
      Duration : 1h 28mn
      Bit rate mode : Constant
      Bit rate : 448 Kbps
      Channel(s) : 6 channels
      Channel positions : Front: L C R, Surround: L R, LFE
      Sampling rate : 48.0 KHz
      Stream size : 283 MiB (26%)
      Alignment : Aligned on interleaves
      Interleave, duration : 64 ms (1.53 video frames)
      Interleave, preload duration : 192 ms
      Title : after index T80 3_2ch 448Kbps DELAY 0ms

   Audio #2
      ID : 2
      Format : AC-3
      Format/Info : Audio Coding 3
      Codec ID : 2000
      Duration : 1h 28mn
      Bit rate mode : Constant
      Bit rate : 224 Kbps
      Channel(s) : 2 channels
      Channel positions : L R
      Sampling rate : 48.0 KHz
      Stream size : 141 MiB (13%)
      Alignment : Aligned on interleaves
      Interleave, duration : 64 ms (1.53 video frames)
      Interleave, preload duration : 192 ms
      Title : after index T81 2_0ch 224Kbps DELAY 0ms